<svg xmlns="http://www.w3.org/2000/svg" id="svg1" viewBox="0 0 100 100"><style id="style1">@font-face{font-family:&quot;GoogleFont&quot;;src:url(https://fonts.googleapis.com/css2?family=Roboto)}</style><path id="text1" d="M28.403 61.577v-8.442H50.21v19.96q-3.179 3.077-9.229 5.435-6.015 2.324-12.202 2.324-7.861 0-13.706-3.28Q9.23 74.257 6.29 68.14q-2.94-6.153-2.94-13.365 0-7.827 3.282-13.91 3.281-6.085 9.604-9.332 4.82-2.495 11.997-2.495 9.331 0 14.561 3.93 5.264 3.897 6.768 10.802l-10.05 1.88q-1.059-3.692-3.998-5.811-2.906-2.153-7.28-2.153-6.631 0-10.562 4.204-3.897 4.204-3.897 12.475 0 8.921 3.965 13.399 3.965 4.443 10.39 4.443 3.18 0 6.358-1.23 3.213-1.265 5.503-3.042v-6.358ZM59.814 80V30.303h10.118v41.255h25.156V80Z" aria-label="GL" style="color:#19c378;font-weight:600;font-size:70px;font-family:Arial,GoogleFont,sans-serif;fill:#19c378"/></svg>